<?xml version="1.0" standalone="no"?><!DOCTYPE svg PUBLIC "-//W3C//DTD SVG 1.1//EN" "http://www.w3.org/Graphics/SVG/1.1/DTD/svg11.dtd"><svg class="icon" width="200px" height="200.00px" viewBox="0 0 1024 1024" version="1.1" xmlns="http://www.w3.org/2000/svg"><path d="M512 998.4c-71.936 0-345.6-358.656-345.6-627.2C166.4 180.608 321.408 25.6 512 25.6s345.6 155.008 345.6 345.6c0 268.544-273.664 627.2-345.6 627.2zM512 76.8a294.784 294.784 0 0 0-294.4 294.4c0 251.392 241.536 546.304 294.592 574.912 51.712-27.52 294.208-326.592 294.208-574.912 0-162.304-132.096-294.4-294.4-294.4zM519.488 559.68c-98.816 0-179.2-80.384-179.2-179.2s80.384-179.2 179.2-179.2 179.2 80.384 179.2 179.2-80.384 179.2-179.2 179.2z m0-307.2c-70.592 0-128 57.408-128 128s57.408 128 128 128 128-57.408 128-128-57.408-128-128-128z" /></svg>